<?xml version="1.0" encoding="utf-8"?>
<!-- Generator: Adobe Illustrator 25.0.1, SVG Export Plug-In . SVG Version: 6.00 Build 0)  -->
<svg version="1.0" id="Layer_1" xmlns="http://www.w3.org/2000/svg" xmlns:xlink="http://www.w3.org/1999/xlink" x="0px" y="0px"
	 width="280px" height="280px" viewBox="0 0 280 280" xml:space="preserve">
<g>
	<path fill="#FDB940" d="M253.7,5.4l-62.5,68.4c-0.8,34.7-9.2,86.9-46,134.7l54.4,13.6C290.3,136.7,253.7,5.4,253.7,5.4z"/>
	<path fill="#FEB322" d="M191.2,73.8c0.5-24-2.6-39.6-2.6-39.6l-137.9,151l94.3,23.6c0.1-0.1,0.1-0.2,0.2-0.3l-62.7-15.7L191.2,73.8
		z"/>
	<path fill="#F98200" d="M82.6,192.8l62.7,15.7c36.8-47.7,45.2-100,46-134.7L82.6,192.8z"/>
	<path fill="#1B208B" d="M169.8,224.2c5.5,0,10.8,0.3,16.1,0.7L8,181.1c0,0,33.1,11,73.1,70.8C102.2,234.9,134.1,224.2,169.8,224.2z
		"/>
</g>
</svg>
